<svg width="40" height="40" viewBox="0 0 40 40" fill="none" xmlns="http://www.w3.org/2000/svg">
<g clip-path="url(#clip0_14_483)">
<path d="M32.5366 29.8363C32.3874 28.0829 30.1432 26.9782 28.7317 28.1343C26.9261 29.3245 24.9577 30.2184 22.7745 30.3517C22.7376 30.3584 22.7014 30.3651 22.6645 30.3718C21.0744 30.4984 19.4293 30.4299 17.8784 30.0426C15.7736 29.3275 13.7283 28.056 12.3334 26.2557C10.111 23.461 9.89326 19.5214 11.0651 16.247C12.4253 12.9741 15.6726 10.4341 19.1911 9.86951C25.9373 9.18945 26.7716 13.3048 29.5471 11.2304C29.5697 11.2155 29.5923 11.2006 29.6149 11.1857C33.7974 6.60925 25.1574 4 20.5107 4C2.08071 4.04171 -2.63681 29.3044 15.2099 35.1881C15.4797 35.3028 15.7743 35.3728 16.0705 35.4339C16.4759 35.5501 16.8881 35.6499 17.2936 35.7028C17.6184 35.7818 17.9492 35.8421 18.2898 35.8592C18.4074 35.86 18.5182 35.9017 18.6297 35.9047C18.9462 35.9575 19.2816 35.9516 19.6041 35.9724C20.3374 36.0268 21.094 35.9963 21.8242 35.9277C21.8958 35.9389 21.9568 35.9024 22.0277 35.9047C22.204 35.8674 22.3969 35.8771 22.571 35.8376C22.721 35.8071 22.8823 35.8205 23.0239 35.7706C24.3842 35.5836 25.7964 35.1568 27.079 34.6294C27.7347 34.339 28.4174 34.0015 29.0489 33.6887C30.4891 32.7919 32.6685 31.8638 32.5358 29.8378L32.5366 29.8363ZM24.0858 30.2623C24.0858 30.2623 24.088 30.2623 24.0895 30.2623C24.088 30.2631 24.0865 30.2646 24.0858 30.2623ZM29.5041 33.3982C29.5041 33.3982 29.5026 33.3997 29.5019 33.3982C29.5026 33.3982 29.5034 33.3982 29.5041 33.3982ZM29.5893 27.8035C29.5855 27.7991 29.5893 27.7998 29.593 27.7991C29.5915 27.8006 29.59 27.8021 29.5893 27.8035Z" fill="#D9D9D9"/>
<path d="M35.8683 17.0082C35.5872 16.1084 35.2646 15.3986 34.826 14.837C34.5977 14.4884 33.8727 13.9632 33.5864 13.8262C32.2299 13.1782 30.9126 13.2348 29.7287 13.8277C28.7694 14.256 28.2042 15.1938 27.6028 15.9066C26.4935 13.5878 23.3631 12.551 21.2138 14.1219C19.8656 15.129 19.1331 16.784 19.3321 18.4414C19.4391 19.2533 19.7609 20.0227 20.2613 20.6797C20.5167 21.0849 20.9455 21.4454 21.3261 21.7545C21.3261 21.7545 22.9275 23.1526 22.9802 23.1638C27.6917 26.1253 24.2109 27.7283 27.3714 26.1834C29.7129 24.985 31.9164 23.5258 33.8976 21.7992C34.496 21.2554 35.184 20.6916 35.4809 19.9385C35.9647 19.0387 36.1478 17.9073 35.8675 17.0082H35.8683ZM33.6617 18.5888C33.2028 19.5802 32.3279 18.8227 32.5803 18.1896C32.6994 17.8909 32.9571 17.5438 32.468 17.1185C31.9789 16.6932 32.3181 15.9155 32.7981 15.9811C33.5133 16.1166 34.2021 17.4209 33.661 18.5888H33.6617ZM35.1855 15.3986L35.1923 15.3926C35.1893 15.3941 35.1878 15.3964 35.1855 15.3986Z" fill="#D9D9D9"/>
</g>
<defs>
<clipPath id="clip0_14_483">
<rect width="32" height="32" fill="white" transform="translate(4 4)"/>
</clipPath>
</defs>
</svg>
